HIERARCHY
ROOT Hips
{
	OFFSET 0.000000 0.000000 0.000000 
	CHANNELS 6 Xposition Yposition Zposition Zrotation Xrotation Yrotation
	JOINT Spine
	{
		OFFSET -0.000000 8.280624 0.000000 
		CHANNELS 3 Zrotation Xrotation Yrotation
		JOINT Spine1
		{
			OFFSET -0.000000 24.860672 0.000000 
			CHANNELS 3 Zrotation Xrotation Yrotation
			JOINT Neck
			{
				OFFSET -0.000000 24.758574 2.250779 
				CHANNELS 3 Zrotation Xrotation Yrotation
				JOINT Head
				{
					OFFSET -0.000000 14.137651 -2.019665 
					CHANNELS 3 Zrotation Xrotation Yrotation
					End Site
					{
						OFFSET -0.000000 25.245806 0.000000 
					}
				}
			}
			JOINT LeftShoulder
			{
				OFFSET 4.021533 22.370487 -0.301823 
				CHANNELS 3 Zrotation Xrotation Yrotation
				JOINT LeftArm
				{
					OFFSET 12.928750 0.000000 0.000000 
					CHANNELS 3 Zrotation Xrotation Yrotation
					JOINT LeftForeArm
					{
						OFFSET 29.110218 0.000000 0.000000 
						CHANNELS 3 Zrotation Xrotation Yrotation
						JOINT LeftHand
						{
							OFFSET 26.112843 0.000000 0.000000 
							CHANNELS 3 Zrotation Xrotation Yrotation
							End Site
							{
								OFFSET 15.147485 0.000000 0.000000 
							}
						}
					}
				}
			}
			JOINT RightShoulder
			{
				OFFSET -4.040554 22.370487 -0.301823 
				CHANNELS 3 Zrotation Xrotation Yrotation
				JOINT RightArm
				{
					OFFSET -12.928750 0.000000 0.000000 
					CHANNELS 3 Zrotation Xrotation Yrotation
					JOINT RightForeArm
					{
						OFFSET -29.110218 0.000000 0.000000 
						CHANNELS 3 Zrotation Xrotation Yrotation
						JOINT RightHand
						{
							OFFSET -26.112843 0.000000 0.000000 
							CHANNELS 3 Zrotation Xrotation Yrotation
							End Site
							{
								OFFSET -15.147485 0.000000 0.000000 
							}
						}
					}
				}
			}
		}
	}
	JOINT LeftUpLeg
	{
		OFFSET 10.098323 0.000000 0.000000 
		CHANNELS 3 Zrotation Xrotation Yrotation
		JOINT LeftLeg
		{
			OFFSET -0.000000 -44.180832 0.000000 
			CHANNELS 3 Zrotation Xrotation Yrotation
			JOINT LeftFoot
			{
				OFFSET -0.000000 -40.401024 0.000000 
				CHANNELS 3 Zrotation Xrotation Yrotation
				JOINT LeftToeBase
				{
					OFFSET -0.000000 -6.563910 15.147485 
					CHANNELS 3 Zrotation Xrotation Yrotation
					End Site
					{
						OFFSET -0.000000 0.000000 4.039329 
					}
				}
			}
		}
	}
	JOINT RightUpLeg
	{
		OFFSET -10.098323 0.000000 0.000000 
		CHANNELS 3 Zrotation Xrotation Yrotation
		JOINT RightLeg
		{
			OFFSET -0.000000 -44.180832 0.000000 
			CHANNELS 3 Zrotation Xrotation Yrotation
			JOINT RightFoot
			{
				OFFSET -0.000000 -40.401024 0.000000 
				CHANNELS 3 Zrotation Xrotation Yrotation
				JOINT RightToeBase
				{
					OFFSET -0.000000 -6.563910 15.147485 
					CHANNELS 3 Zrotation Xrotation Yrotation
					End Site
					{
						OFFSET -0.000000 0.000000 4.039329 
					}
				}
			}
		}
	}
}
MOTION
Frames: 6
Frame Time: 0.008333
-45.519489 89.054253 17.688675 3.313418 2.932163 85.328102 -5.852462 20.267248 -2.931220 3.933382 0.237265 -3.986236 -9.154737 17.228733 31.127075 -17.171293 -12.343534 28.325678 1.051150 -7.937373 -32.036018 -24.741123 9.993293 -74.437149 -4.161880 -10.638844 -67.288467 34.168697 -14.623847 -4.267823 -21.376944 -9.683323 14.967175 -135.890076 22.523167 -173.107651 66.734673 -34.295288 -93.685707 8.767691 54.096893 15.572598 21.678490 -16.886202 14.001266 -7.953014 38.381229 4.557923 -16.903868 -0.260624 6.757174 0.000000 0.000000 0.000000 -4.455060 -20.972736 6.546206 -0.667116 41.813347 15.496867 0.035635 -15.652725 -20.008774 0.000000 0.000000 0.000000 
-45.460732 89.065552 17.626968 3.402858 2.950189 85.201820 -5.864839 20.256443 -2.905659 3.849964 0.337299 -3.965502 -9.185001 17.195349 31.199621 -17.212172 -12.320773 28.399090 1.048008 -7.771328 -32.018917 -24.800116 10.076010 -74.489281 -4.070941 -10.516558 -66.401955 33.780159 -14.725810 -5.423196 -21.203379 -9.577278 14.891013 -135.759659 21.992424 -173.043152 66.819389 -34.004162 -93.629738 10.387569 54.447659 14.769886 21.616877 -16.537767 14.041699 -7.801135 37.880199 4.738534 -16.675594 -0.339078 6.813980 0.000000 0.000000 0.000000 -4.493357 -20.863230 6.619122 -0.674677 41.795265 15.575052 0.025932 -15.664389 -20.039469 0.000000 0.000000 0.000000 
-45.402176 89.071220 17.556742 3.476033 2.956811 85.072777 -5.870846 20.232216 -2.897602 3.780423 0.431110 -3.960125 -9.262547 17.206930 31.273958 -17.253714 -12.384245 28.457045 1.057804 -7.594258 -31.984663 -24.874901 10.104650 -74.459381 -4.132593 -10.214702 -65.610725 33.788509 -14.772779 -6.589548 -21.018728 -9.497805 14.858348 -135.637177 21.457159 -172.997208 66.942787 -33.704281 -93.587334 11.583417 54.870239 14.355929 21.511522 -16.154659 14.068608 -7.576004 37.263569 5.069278 -16.643110 -0.160028 6.777099 0.000000 0.000000 0.000000 -4.523354 -20.779385 6.710254 -0.667797 41.791878 15.632436 0.008386 -15.674949 -20.066673 0.000000 0.000000 0.000000 
-45.338356 89.074776 17.476398 3.545992 2.953888 84.935844 -5.844079 20.194021 -2.899756 3.676915 0.540627 -3.958629 -9.229276 17.112312 31.308388 -17.339243 -12.236053 28.504559 1.087962 -7.433252 -31.945562 -24.886759 10.138139 -74.418724 -4.202065 -9.804251 -64.897476 34.232231 -14.672176 -7.485212 -20.826494 -9.401901 14.789994 -135.589493 20.880001 -173.009460 67.074287 -33.406090 -93.555473 12.411669 55.309414 14.294896 21.381618 -15.727493 14.113289 -7.277514 36.558567 5.053533 -16.706354 0.203557 6.937373 0.000000 0.000000 0.000000 -4.544621 -20.702848 6.784232 -0.683072 41.801205 15.699070 0.014023 -15.690704 -20.070465 0.000000 0.000000 0.000000 
-45.268112 89.073608 17.389879 3.619318 2.940755 84.815781 -5.809352 20.156771 -2.926103 3.587683 0.648137 -3.979765 -9.243548 17.073477 31.409828 -17.399265 -12.219414 28.604042 1.122017 -7.254233 -31.877497 -24.908970 10.155460 -74.341698 -4.590891 -9.562567 -64.368866 34.577522 -14.997238 -8.567568 -20.642006 -9.345372 14.763806 -135.543289 20.043297 -173.006531 67.538628 -33.216263 -93.164467 13.010285 55.661892 14.335177 21.234617 -15.252912 14.105917 -7.090747 35.671741 5.525344 -16.582348 0.935458 6.780311 0.000000 0.000000 0.000000 -4.564520 -20.622581 6.794724 -0.750563 41.825596 15.845001 0.033043 -15.718187 -20.082722 0.000000 0.000000 0.000000 
-45.187809 89.068298 17.284729 3.703387 2.918800 84.674774 -5.785016 20.131609 -2.942626 3.556637 0.735166 -3.993169 -9.425074 17.144291 31.540514 -17.376930 -12.460413 28.703709 1.105616 -7.077444 -31.851147 -24.848742 10.213446 -74.230194 -4.605310 -9.079021 -63.707752 35.540028 -14.737678 -9.094942 -20.550003 -9.292919 14.743656 -135.502853 19.255417 -173.016357 67.939522 -32.981720 -92.875534 13.451659 56.090752 14.507198 21.022802 -14.702024 14.202134 -6.716330 34.734039 5.392221 -16.648321 1.408330 6.859076 0.000000 0.000000 0.000000 -4.578671 -20.538504 6.803099 -0.837156 41.864040 15.955565 0.081098 -15.750601 -20.037975 0.000000 0.000000 0.000000 
